<?xml version="1.0" encoding="UTF-8" standalone="no"?>
<!DOCTYPE svg PUBLIC "-//W3C//DTD SVG 1.1//EN"
 "http://www.w3.org/Graphics/SVG/1.1/DTD/svg11.dtd">
<!-- Generated by graphviz version 2.40.1 (20161225.0304)
 -->
<!-- Title: G Pages: 1 -->
<svg width="238pt" height="326pt"
 viewBox="0.00 0.00 237.50 326.00" xmlns="http://www.w3.org/2000/svg" xmlns:xlink="http://www.w3.org/1999/xlink">
<g id="graph0" class="graph" transform="scale(1 1) rotate(0) translate(4 322)">
<title>G</title>
<polygon fill="#ffffff" stroke="transparent" points="-4,4 -4,-322 233.5,-322 233.5,4 -4,4"/>
<!-- A0 -->
<g id="node1" class="node">
<title>A0</title>
<polygon fill="none" stroke="#000000" points="10.5,-266 10.5,-298 103.5,-298 103.5,-266 10.5,-266"/>
<text text-anchor="start" x="31.02" y="-279" font-family="Helvetica,sans-Serif" font-size="10.00" fill="#000000">+I:IMachine</text>
<polygon fill="none" stroke="#000000" points="10.5,-198 10.5,-266 103.5,-266 103.5,-198 10.5,-198"/>
<text text-anchor="start" x="27.4055" y="-247" font-family="Helvetica,sans-Serif" font-size="10.00" fill="#000000">+Broken:bool</text>
<text text-anchor="start" x="31.015" y="-235" font-family="Helvetica,sans-Serif" font-size="10.00" fill="#000000">+Open:bool</text>
<text text-anchor="start" x="29.35" y="-223" font-family="Helvetica,sans-Serif" font-size="10.00" fill="#000000">+Taken:bool</text>
<text text-anchor="start" x="20.1915" y="-211" font-family="Helvetica,sans-Serif" font-size="10.00" fill="#000000">+DisplayStatus()</text>
</g>
<!-- A1 -->
<g id="node2" class="node">
<title>A1</title>
<polygon fill="none" stroke="#000000" points=".5,-96 .5,-128 113.5,-128 113.5,-96 .5,-96"/>
<text text-anchor="start" x="35.1885" y="-109" font-family="Helvetica,sans-Serif" font-size="10.00" fill="#000000">+Machine</text>
<polygon fill="none" stroke="#000000" points=".5,-52 .5,-96 113.5,-96 113.5,-52 .5,-52"/>
<text text-anchor="start" x="10.463" y="-77" font-family="Helvetica,sans-Serif" font-size="10.00" fill="#000000">+machineType:string</text>
<text text-anchor="start" x="27.9655" y="-65" font-family="Helvetica,sans-Serif" font-size="10.00" fill="#000000">+name:string</text>
<polygon fill="none" stroke="#000000" points=".5,-20 .5,-52 113.5,-52 113.5,-20 .5,-20"/>
<text text-anchor="start" x="20.1915" y="-33" font-family="Helvetica,sans-Serif" font-size="10.00" fill="#000000">+DisplayStatus()</text>
<polygon fill="none" stroke="#000000" points=".5,0 .5,-20 113.5,-20 113.5,0 .5,0"/>
</g>
<!-- A0&#45;&gt;A1 -->
<g id="edge1" class="edge">
<title>A0&#45;&gt;A1</title>
<path fill="none" stroke="#000000" d="M56.5,-187.6521C56.5,-168.563 56.5,-147.4035 56.5,-128.0637"/>
<polygon fill="none" stroke="#000000" points="53.0001,-187.7212 56.5,-197.7212 60.0001,-187.7212 53.0001,-187.7212"/>
</g>
<!-- A2 -->
<g id="node3" class="node">
<title>A2</title>
<polygon fill="none" stroke="#000000" points="121.5,-286 121.5,-318 229.5,-318 229.5,-286 121.5,-286"/>
<text text-anchor="start" x="162.857" y="-299" font-family="Helvetica,sans-Serif" font-size="10.00" fill="#000000">+Map</text>
<polygon fill="none" stroke="#000000" points="121.5,-266 121.5,-286 229.5,-286 229.5,-266 121.5,-266"/>
<polygon fill="none" stroke="#000000" points="121.5,-222 121.5,-266 229.5,-266 229.5,-222 121.5,-222"/>
<text text-anchor="start" x="131.472" y="-247" font-family="Helvetica,sans-Serif" font-size="10.00" fill="#000000">+DisplayMachines()</text>
<text text-anchor="start" x="136.187" y="-235" font-family="Helvetica,sans-Serif" font-size="10.00" fill="#000000">+DisplayLegend()</text>
<polygon fill="none" stroke="#000000" points="121.5,-178 121.5,-222 229.5,-222 229.5,-178 121.5,-178"/>
<text text-anchor="start" x="172.171" y="-203" font-family="Helvetica,sans-Serif" font-size="10.00" fill="#000000">()</text>
<text text-anchor="start" x="132.9975" y="-191" font-family="Helvetica,sans-Serif" font-size="10.00" fill="#000000">(machine:Machine)</text>
</g>
</g>
</svg>
