<?xml version="1.0" encoding="UTF-8" standalone="no"?>
<!DOCTYPE svg PUBLIC "-//W3C//DTD SVG 1.1//EN"
 "http://www.w3.org/Graphics/SVG/1.1/DTD/svg11.dtd">
<!-- Generated by graphviz version 2.40.1 (20161225.0304)
 -->
<!-- Title: G Pages: 1 -->
<svg width="188pt" height="270pt"
 viewBox="0.00 0.00 188.00 270.00" xmlns="http://www.w3.org/2000/svg" xmlns:xlink="http://www.w3.org/1999/xlink">
<g id="graph0" class="graph" transform="scale(1 1) rotate(0) translate(4 266)">
<title>G</title>
<polygon fill="#ffffff" stroke="transparent" points="-4,4 -4,-266 184,-266 184,4 -4,4"/>
<!-- A0 -->
<g id="node1" class="node">
<title>A0</title>
<polygon fill="none" stroke="#000000" points="0,-144 0,-176 180,-176 180,-144 0,-144"/>
<text text-anchor="start" x="51.8075" y="-157" font-family="Helvetica,sans-Serif" font-size="10.00" fill="#000000">+AvailabilityForm</text>
<polygon fill="none" stroke="#000000" points="0,-100 0,-144 180,-144 180,-100 0,-100"/>
<text text-anchor="start" x="34.2945" y="-125" font-family="Helvetica,sans-Serif" font-size="10.00" fill="#000000">+selectedWasherList:List</text>
<text text-anchor="start" x="39.299" y="-113" font-family="Helvetica,sans-Serif" font-size="10.00" fill="#000000">+selectedDryerList:List</text>
<polygon fill="none" stroke="#000000" points="0,-32 0,-100 180,-100 180,-32 0,-32"/>
<text text-anchor="start" x="44.163" y="-81" font-family="Helvetica,sans-Serif" font-size="10.00" fill="#000000">&#45;HomeButton__Click</text>
<text text-anchor="start" x="41.9435" y="-69" font-family="Helvetica,sans-Serif" font-size="10.00" fill="#000000">&#45;HistoryButton__Click</text>
<text text-anchor="start" x="41.9435" y="-57" font-family="Helvetica,sans-Serif" font-size="10.00" fill="#000000">&#45;HistoryButton__Click</text>
<text text-anchor="start" x="9.995" y="-45" font-family="Helvetica,sans-Serif" font-size="10.00" fill="#000000">&#45;HallDropDownButton__ItemClicked</text>
<polygon fill="none" stroke="#000000" points="0,0 0,-32 180,-32 180,0 0,0"/>
<text text-anchor="start" x="86.671" y="-13" font-family="Helvetica,sans-Serif" font-size="10.00" fill="#000000">()</text>
</g>
<!-- A1 -->
<g id="node2" class="node">
<title>A1</title>
<polygon fill="none" stroke="#000000" points="117,-262 63,-262 63,-226 117,-226 117,-262"/>
<text text-anchor="middle" x="90" y="-241" font-family="Helvetica,sans-Serif" font-size="10.00" fill="#000000">Form</text>
</g>
<!-- A1&#45;&gt;A0 -->
<g id="edge1" class="edge">
<title>A1&#45;&gt;A0</title>
<path fill="none" stroke="#000000" stroke-dasharray="5,2" d="M90,-215.7065C90,-204.3418 90,-190.564 90,-176.3187"/>
<polygon fill="#000000" stroke="#000000" points="90,-225.7995 85.5001,-215.7995 90,-220.7995 90.0001,-215.7995 90.0001,-215.7995 90.0001,-215.7995 90,-220.7995 94.5001,-215.7996 90,-225.7995 90,-225.7995"/>
</g>
</g>
</svg>
