<?xml version="1.0" encoding="UTF-8" standalone="no"?>
<!DOCTYPE svg PUBLIC "-//W3C//DTD SVG 1.1//EN"
 "http://www.w3.org/Graphics/SVG/1.1/DTD/svg11.dtd">
<!-- Generated by graphviz version 2.40.1 (20161225.0304)
 -->
<!-- Title: G Pages: 1 -->
<svg width="498pt" height="362pt"
 viewBox="0.00 0.00 497.50 362.00" xmlns="http://www.w3.org/2000/svg" xmlns:xlink="http://www.w3.org/1999/xlink">
<g id="graph0" class="graph" transform="scale(1 1) rotate(0) translate(4 358)">
<title>G</title>
<polygon fill="#ffffff" stroke="transparent" points="-4,4 -4,-358 493.5,-358 493.5,4 -4,4"/>
<!-- A0 -->
<g id="node1" class="node">
<title>A0</title>
<polygon fill="none" stroke="#000000" points="134.5,-290 134.5,-322 247.5,-322 247.5,-290 134.5,-290"/>
<text text-anchor="start" x="167.9395" y="-303" font-family="Helvetica,sans-Serif" font-size="10.00" fill="#000000">I:IMachine</text>
<polygon fill="none" stroke="#000000" points="134.5,-234 134.5,-290 247.5,-290 247.5,-234 134.5,-234"/>
<text text-anchor="start" x="144.463" y="-271" font-family="Helvetica,sans-Serif" font-size="10.00" fill="#000000">+machineType:string</text>
<text text-anchor="start" x="161.9655" y="-259" font-family="Helvetica,sans-Serif" font-size="10.00" fill="#000000">+name:string</text>
<text text-anchor="start" x="154.1915" y="-247" font-family="Helvetica,sans-Serif" font-size="10.00" fill="#000000">+DisplayStatus()</text>
</g>
<!-- A1 -->
<g id="node2" class="node">
<title>A1</title>
<polygon fill="none" stroke="#000000" points=".5,-120 .5,-152 113.5,-152 113.5,-120 .5,-120"/>
<text text-anchor="start" x="14.3565" y="-133" font-family="Helvetica,sans-Serif" font-size="10.00" fill="#000000">+WorkingMachines</text>
<polygon fill="none" stroke="#000000" points=".5,-76 .5,-120 113.5,-120 113.5,-76 .5,-76"/>
<text text-anchor="start" x="10.463" y="-101" font-family="Helvetica,sans-Serif" font-size="10.00" fill="#000000">+machineType:string</text>
<text text-anchor="start" x="27.9655" y="-89" font-family="Helvetica,sans-Serif" font-size="10.00" fill="#000000">+name:string</text>
<polygon fill="none" stroke="#000000" points=".5,-20 .5,-76 113.5,-76 113.5,-20 .5,-20"/>
<text text-anchor="start" x="15.742" y="-57" font-family="Helvetica,sans-Serif" font-size="10.00" fill="#000000">+washersInUse:int</text>
<text text-anchor="start" x="20.4665" y="-45" font-family="Helvetica,sans-Serif" font-size="10.00" fill="#000000">+dryersInUse:int</text>
<text text-anchor="start" x="20.1915" y="-33" font-family="Helvetica,sans-Serif" font-size="10.00" fill="#000000">+DisplayStatus()</text>
<polygon fill="none" stroke="#000000" points=".5,0 .5,-20 113.5,-20 113.5,0 .5,0"/>
</g>
<!-- A0&#45;&gt;A1 -->
<g id="edge1" class="edge">
<title>A0&#45;&gt;A1</title>
<path fill="none" stroke="#000000" d="M155.5481,-225.3113C140.7068,-202.9387 123.1212,-176.4289 106.9165,-152.001"/>
<polygon fill="none" stroke="#000000" points="152.6485,-227.2718 161.0931,-233.6702 158.4818,-223.4023 152.6485,-227.2718"/>
</g>
<!-- A2 -->
<g id="node3" class="node">
<title>A2</title>
<polygon fill="none" stroke="#000000" points="131.5,-120 131.5,-152 249.5,-152 249.5,-120 131.5,-120"/>
<text text-anchor="start" x="153.9605" y="-133" font-family="Helvetica,sans-Serif" font-size="10.00" fill="#000000">+OpenMachines</text>
<polygon fill="none" stroke="#000000" points="131.5,-76 131.5,-120 249.5,-120 249.5,-76 131.5,-76"/>
<text text-anchor="start" x="143.963" y="-101" font-family="Helvetica,sans-Serif" font-size="10.00" fill="#000000">+machineType:string</text>
<text text-anchor="start" x="161.4655" y="-89" font-family="Helvetica,sans-Serif" font-size="10.00" fill="#000000">+name:string</text>
<polygon fill="none" stroke="#000000" points="131.5,-20 131.5,-76 249.5,-76 249.5,-20 131.5,-20"/>
<text text-anchor="start" x="141.464" y="-57" font-family="Helvetica,sans-Serif" font-size="10.00" fill="#000000">+availableWashers:int</text>
<text text-anchor="start" x="146.4685" y="-45" font-family="Helvetica,sans-Serif" font-size="10.00" fill="#000000">+availableDryers:int</text>
<text text-anchor="start" x="153.6915" y="-33" font-family="Helvetica,sans-Serif" font-size="10.00" fill="#000000">+DisplayStatus()</text>
<polygon fill="none" stroke="#000000" points="131.5,0 131.5,-20 249.5,-20 249.5,0 131.5,0"/>
</g>
<!-- A0&#45;&gt;A2 -->
<g id="edge2" class="edge">
<title>A0&#45;&gt;A2</title>
<path fill="none" stroke="#000000" d="M190.5,-223.5287C190.5,-201.5387 190.5,-175.7832 190.5,-152.001"/>
<polygon fill="none" stroke="#000000" points="187.0001,-223.6702 190.5,-233.6702 194.0001,-223.6703 187.0001,-223.6702"/>
</g>
<!-- A3 -->
<g id="node4" class="node">
<title>A3</title>
<polygon fill="none" stroke="#000000" points="268.5,-120 268.5,-152 381.5,-152 381.5,-120 268.5,-120"/>
<text text-anchor="start" x="284.851" y="-133" font-family="Helvetica,sans-Serif" font-size="10.00" fill="#000000">+BrokenMachines</text>
<polygon fill="none" stroke="#000000" points="268.5,-76 268.5,-120 381.5,-120 381.5,-76 268.5,-76"/>
<text text-anchor="start" x="278.463" y="-101" font-family="Helvetica,sans-Serif" font-size="10.00" fill="#000000">+machineType:string</text>
<text text-anchor="start" x="295.9655" y="-89" font-family="Helvetica,sans-Serif" font-size="10.00" fill="#000000">+name:string</text>
<polygon fill="none" stroke="#000000" points="268.5,-20 268.5,-76 381.5,-76 381.5,-20 268.5,-20"/>
<text text-anchor="start" x="280.4075" y="-57" font-family="Helvetica,sans-Serif" font-size="10.00" fill="#000000">+brokenWashers:int</text>
<text text-anchor="start" x="285.412" y="-45" font-family="Helvetica,sans-Serif" font-size="10.00" fill="#000000">+brokenDryers:int</text>
<text text-anchor="start" x="288.1915" y="-33" font-family="Helvetica,sans-Serif" font-size="10.00" fill="#000000">+DisplayStatus()</text>
<polygon fill="none" stroke="#000000" points="268.5,0 268.5,-20 381.5,-20 381.5,0 268.5,0"/>
</g>
<!-- A0&#45;&gt;A3 -->
<g id="edge3" class="edge">
<title>A0&#45;&gt;A3</title>
<path fill="none" stroke="#000000" d="M225.4519,-225.3113C240.2932,-202.9387 257.8788,-176.4289 274.0835,-152.001"/>
<polygon fill="none" stroke="#000000" points="222.5182,-223.4023 219.9069,-233.6702 228.3515,-227.2718 222.5182,-223.4023"/>
</g>
<!-- A4 -->
<g id="node5" class="node">
<title>A4</title>
<polygon fill="none" stroke="#000000" points="265.5,-322 265.5,-354 373.5,-354 373.5,-322 265.5,-322"/>
<text text-anchor="start" x="306.857" y="-335" font-family="Helvetica,sans-Serif" font-size="10.00" fill="#000000">+Map</text>
<polygon fill="none" stroke="#000000" points="265.5,-278 265.5,-322 373.5,-322 373.5,-278 265.5,-278"/>
<text text-anchor="start" x="301.0235" y="-303" font-family="Helvetica,sans-Serif" font-size="10.00" fill="#000000">+size:int</text>
<text text-anchor="start" x="285.742" y="-291" font-family="Helvetica,sans-Serif" font-size="10.00" fill="#000000">+location:string</text>
<polygon fill="none" stroke="#000000" points="265.5,-246 265.5,-278 373.5,-278 373.5,-246 265.5,-246"/>
<text text-anchor="start" x="275.472" y="-259" font-family="Helvetica,sans-Serif" font-size="10.00" fill="#000000">+DisplayMachines()</text>
<polygon fill="none" stroke="#000000" points="265.5,-202 265.5,-246 373.5,-246 373.5,-202 265.5,-202"/>
<text text-anchor="start" x="316.171" y="-227" font-family="Helvetica,sans-Serif" font-size="10.00" fill="#000000">()</text>
<text text-anchor="start" x="276.9975" y="-215" font-family="Helvetica,sans-Serif" font-size="10.00" fill="#000000">(machine:Machine)</text>
</g>
<!-- A5 -->
<g id="node6" class="node">
<title>A5</title>
<polygon fill="none" stroke="#000000" points="391.5,-304 391.5,-336 489.5,-336 489.5,-304 391.5,-304"/>
<text text-anchor="start" x="420.9035" y="-317" font-family="Helvetica,sans-Serif" font-size="10.00" fill="#000000">+Legend</text>
<polygon fill="none" stroke="#000000" points="391.5,-272 391.5,-304 489.5,-304 489.5,-272 391.5,-272"/>
<text text-anchor="start" x="422.0235" y="-285" font-family="Helvetica,sans-Serif" font-size="10.00" fill="#000000">+size:int</text>
<polygon fill="none" stroke="#000000" points="391.5,-240 391.5,-272 489.5,-272 489.5,-240 391.5,-240"/>
<text text-anchor="start" x="401.187" y="-253" font-family="Helvetica,sans-Serif" font-size="10.00" fill="#000000">+DisplayLegend()</text>
<polygon fill="none" stroke="#000000" points="391.5,-220 391.5,-240 489.5,-240 489.5,-220 391.5,-220"/>
</g>
</g>
</svg>
