<?xml version="1.0" encoding="UTF-8" standalone="no"?>
<!DOCTYPE svg PUBLIC "-//W3C//DTD SVG 1.1//EN"
 "http://www.w3.org/Graphics/SVG/1.1/DTD/svg11.dtd">
<!-- Generated by graphviz version 2.40.1 (20161225.0304)
 -->
<!-- Title: G Pages: 1 -->
<svg width="285pt" height="274pt"
 viewBox="0.00 0.00 285.00 274.00" xmlns="http://www.w3.org/2000/svg" xmlns:xlink="http://www.w3.org/1999/xlink">
<g id="graph0" class="graph" transform="scale(1 1) rotate(0) translate(4 270)">
<title>G</title>
<polygon fill="#ffffff" stroke="transparent" points="-4,4 -4,-270 281,-270 281,4 -4,4"/>
<!-- A0 -->
<g id="node1" class="node">
<title>A0</title>
<polygon fill="none" stroke="#000000" points=".5,-214 .5,-246 75.5,-246 75.5,-214 .5,-214"/>
<text text-anchor="start" x="11.1845" y="-227" font-family="Helvetica,sans-Serif" font-size="10.00" fill="#000000">+I:WashLog</text>
<polygon fill="none" stroke="#000000" points=".5,-158 .5,-214 75.5,-214 75.5,-158 .5,-158"/>
<text text-anchor="start" x="10.0855" y="-195" font-family="Helvetica,sans-Serif" font-size="10.00" fill="#000000">+DateTime()</text>
<text text-anchor="start" x="15.779" y="-183" font-family="Helvetica,sans-Serif" font-size="10.00" fill="#000000">Machine()</text>
<text text-anchor="start" x="14.389" y="-171" font-family="Helvetica,sans-Serif" font-size="10.00" fill="#000000">WashSet()</text>
</g>
<!-- A3 -->
<g id="node4" class="node">
<title>A3</title>
<polygon fill="none" stroke="#000000" points="36.5,-56 36.5,-88 134.5,-88 134.5,-56 36.5,-56"/>
<text text-anchor="start" x="62.2985" y="-69" font-family="Helvetica,sans-Serif" font-size="10.00" fill="#000000">+WashSet</text>
<polygon fill="none" stroke="#000000" points="36.5,0 36.5,-56 134.5,-56 134.5,0 36.5,0"/>
<text text-anchor="start" x="57.8555" y="-37" font-family="Helvetica,sans-Serif" font-size="10.00" fill="#000000">+temp:string</text>
<text text-anchor="start" x="46.1865" y="-25" font-family="Helvetica,sans-Serif" font-size="10.00" fill="#000000">+washType:string</text>
<text text-anchor="start" x="66.4695" y="-13" font-family="Helvetica,sans-Serif" font-size="10.00" fill="#000000">+time:int</text>
</g>
<!-- A0&#45;&gt;A3 -->
<g id="edge1" class="edge">
<title>A0&#45;&gt;A3</title>
<path fill="none" stroke="#000000" d="M53.8221,-148.273C59.7807,-128.6595 66.4449,-106.723 72.1179,-88.0495"/>
<polygon fill="none" stroke="#000000" points="50.4287,-147.4026 50.8707,-157.9882 57.1264,-149.4374 50.4287,-147.4026"/>
</g>
<!-- A1 -->
<g id="node2" class="node">
<title>A1</title>
<polygon fill="none" stroke="#000000" points="202.5,-214 202.5,-246 277.5,-246 277.5,-214 202.5,-214"/>
<text text-anchor="start" x="218.189" y="-227" font-family="Helvetica,sans-Serif" font-size="10.00" fill="#000000">+I:DryLog</text>
<polygon fill="none" stroke="#000000" points="202.5,-158 202.5,-214 277.5,-214 277.5,-158 202.5,-158"/>
<text text-anchor="start" x="212.0855" y="-195" font-family="Helvetica,sans-Serif" font-size="10.00" fill="#000000">+DateTime()</text>
<text text-anchor="start" x="217.779" y="-183" font-family="Helvetica,sans-Serif" font-size="10.00" fill="#000000">Machine()</text>
<text text-anchor="start" x="221.3935" y="-171" font-family="Helvetica,sans-Serif" font-size="10.00" fill="#000000">DrySet()</text>
</g>
<!-- A4 -->
<g id="node5" class="node">
<title>A4</title>
<polygon fill="none" stroke="#000000" points="177.5,-50 177.5,-82 252.5,-82 252.5,-50 177.5,-50"/>
<text text-anchor="start" x="196.803" y="-63" font-family="Helvetica,sans-Serif" font-size="10.00" fill="#000000">+DrySet</text>
<polygon fill="none" stroke="#000000" points="177.5,-6 177.5,-50 252.5,-50 252.5,-6 177.5,-6"/>
<text text-anchor="start" x="187.3555" y="-31" font-family="Helvetica,sans-Serif" font-size="10.00" fill="#000000">+temp:string</text>
<text text-anchor="start" x="198.889" y="-19" font-family="Helvetica,sans-Serif" font-size="10.00" fill="#000000">time:int</text>
</g>
<!-- A1&#45;&gt;A4 -->
<g id="edge2" class="edge">
<title>A1&#45;&gt;A4</title>
<path fill="none" stroke="#000000" d="M230.9469,-147.9445C227.5224,-126.3016 223.6575,-101.8754 220.5351,-82.1419"/>
<polygon fill="none" stroke="#000000" points="227.5162,-148.6581 232.5361,-157.9882 234.4302,-147.564 227.5162,-148.6581"/>
</g>
<!-- A2 -->
<g id="node3" class="node">
<title>A2</title>
<polygon fill="none" stroke="#000000" points="93.5,-234 93.5,-266 184.5,-266 184.5,-234 93.5,-234"/>
<text text-anchor="start" x="123.018" y="-247" font-family="Helvetica,sans-Serif" font-size="10.00" fill="#000000">+A:Log</text>
<polygon fill="none" stroke="#000000" points="93.5,-202 93.5,-234 184.5,-234 184.5,-202 93.5,-202"/>
<text text-anchor="start" x="112.1905" y="-215" font-family="Helvetica,sans-Serif" font-size="10.00" fill="#000000">+logNum:int</text>
<polygon fill="none" stroke="#000000" points="93.5,-170 93.5,-202 184.5,-202 184.5,-170 93.5,-170"/>
<text text-anchor="start" x="103.0215" y="-183" font-family="Helvetica,sans-Serif" font-size="10.00" fill="#000000">+CopySettings()</text>
<polygon fill="none" stroke="#000000" points="93.5,-138 93.5,-170 184.5,-170 184.5,-138 93.5,-138"/>
<text text-anchor="start" x="117.7495" y="-151" font-family="Helvetica,sans-Serif" font-size="10.00" fill="#000000">+Report()</text>
</g>
<!-- A2&#45;&gt;A3 -->
<g id="edge3" class="edge">
<title>A2&#45;&gt;A3</title>
<path fill="none" stroke="#000000" stroke-dasharray="5,2" d="M113.6584,-127.9438C109.1214,-114.4184 104.5193,-100.6989 100.3868,-88.3797"/>
<polygon fill="#000000" stroke="#000000" points="116.9429,-137.7354 109.4962,-129.6857 115.3527,-132.9949 113.7625,-128.2545 113.7625,-128.2545 113.7625,-128.2545 115.3527,-132.9949 118.0289,-126.8234 116.9429,-137.7354 116.9429,-137.7354"/>
</g>
<!-- A2&#45;&gt;A4 -->
<g id="edge4" class="edge">
<title>A2&#45;&gt;A4</title>
<path fill="none" stroke="#000000" stroke-dasharray="5,2" d="M173.8973,-128.4108C181.559,-112.4825 189.3625,-96.2595 196.054,-82.3482"/>
<polygon fill="#000000" stroke="#000000" points="169.4121,-137.7354 169.6916,-126.773 171.5795,-133.2295 173.7469,-128.7237 173.7469,-128.7237 173.7469,-128.7237 171.5795,-133.2295 177.8021,-130.6743 169.4121,-137.7354 169.4121,-137.7354"/>
</g>
</g>
</svg>
