<?xml version="1.0" encoding="UTF-8" standalone="no"?>
<!DOCTYPE svg PUBLIC "-//W3C//DTD SVG 1.1//EN"
 "http://www.w3.org/Graphics/SVG/1.1/DTD/svg11.dtd">
<!-- Generated by graphviz version 2.40.1 (20161225.0304)
 -->
<!-- Title: G Pages: 1 -->
<svg width="301pt" height="438pt"
 viewBox="0.00 0.00 300.50 438.00" xmlns="http://www.w3.org/2000/svg" xmlns:xlink="http://www.w3.org/1999/xlink">
<g id="graph0" class="graph" transform="scale(1 1) rotate(0) translate(4 434)">
<title>G</title>
<polygon fill="#ffffff" stroke="transparent" points="-4,4 -4,-434 296.5,-434 296.5,4 -4,4"/>
<!-- A0 -->
<g id="node1" class="node">
<title>A0</title>
<polygon fill="none" stroke="#000000" points="96,-398 96,-430 209,-430 209,-398 96,-398"/>
<text text-anchor="start" x="125.9645" y="-411" font-family="Helvetica,sans-Serif" font-size="10.00" fill="#000000">+A:Machine</text>
<polygon fill="none" stroke="#000000" points="96,-366 96,-398 209,-398 209,-366 96,-366"/>
<text text-anchor="start" x="151.1105" y="-379" font-family="Helvetica,sans-Serif" font-size="10.00" fill="#000000"> </text>
<polygon fill="none" stroke="#000000" points="96,-226 96,-366 209,-366 209,-226 96,-226"/>
<text text-anchor="start" x="114.0175" y="-347" font-family="Helvetica,sans-Serif" font-size="10.00" fill="#000000">+loadname:string</text>
<text text-anchor="start" x="119.017" y="-323" font-family="Helvetica,sans-Serif" font-size="10.00" fill="#000000">+available:bool</text>
<text text-anchor="start" x="118.742" y="-299" font-family="Helvetica,sans-Serif" font-size="10.00" fill="#000000">+location:string</text>
<text text-anchor="start" x="117.073" y="-275" font-family="Helvetica,sans-Serif" font-size="10.00" fill="#000000">+loadInterval:int</text>
<text text-anchor="start" x="105.694" y="-251" font-family="Helvetica,sans-Serif" font-size="10.00" fill="#000000">+startTime:DateTime</text>
<polygon fill="none" stroke="#000000" points="96,-194 96,-226 209,-226 209,-194 96,-194"/>
<text text-anchor="start" x="115.693" y="-207" font-family="Helvetica,sans-Serif" font-size="10.00" fill="#000000"> +SetStartTime()</text>
</g>
<!-- A1 -->
<g id="node2" class="node">
<title>A1</title>
<polygon fill="none" stroke="#000000" points="0,-112 0,-144 150,-144 150,-112 0,-112"/>
<text text-anchor="start" x="48.184" y="-125" font-family="Helvetica,sans-Serif" font-size="10.00" fill="#000000">+WashLoad</text>
<polygon fill="none" stroke="#000000" points="0,-80 0,-112 150,-112 150,-80 0,-80"/>
<text text-anchor="start" x="73.6105" y="-93" font-family="Helvetica,sans-Serif" font-size="10.00" fill="#000000"> </text>
<polygon fill="none" stroke="#000000" points="0,0 0,-80 150,-80 150,0 0,0"/>
<text text-anchor="start" x="24.2985" y="-61" font-family="Helvetica,sans-Serif" font-size="10.00" fill="#000000">+washType:stringarray</text>
<text text-anchor="start" x="21.6645" y="-49" font-family="Helvetica,sans-Serif" font-size="10.00" fill="#000000"> washTypeTime:intarray</text>
<text text-anchor="start" x="21.661" y="-37" font-family="Helvetica,sans-Serif" font-size="10.00" fill="#000000"> temperature:stringarray</text>
<text text-anchor="start" x="14.57" y="-25" font-family="Helvetica,sans-Serif" font-size="10.00" fill="#000000"> +selectedWashType:string</text>
<text text-anchor="start" x="9.8475" y="-13" font-family="Helvetica,sans-Serif" font-size="10.00" fill="#000000"> +selectedTemperature:string</text>
</g>
<!-- A0&#45;&gt;A1 -->
<g id="edge1" class="edge">
<title>A0&#45;&gt;A1</title>
<path fill="none" stroke="#000000" stroke-dasharray="5,2" d="M110.8847,-183.8485C106.5251,-170.26 102.2103,-156.8115 98.1655,-144.2043"/>
<polygon fill="none" stroke="#000000" points="107.6762,-185.3051 114.0639,-193.7578 114.3416,-183.1666 107.6762,-185.3051"/>
</g>
<!-- A2 -->
<g id="node3" class="node">
<title>A2</title>
<polygon fill="none" stroke="#000000" points="168,-94 168,-126 293,-126 293,-94 168,-94"/>
<text text-anchor="start" x="208.6885" y="-107" font-family="Helvetica,sans-Serif" font-size="10.00" fill="#000000">+DryLoad</text>
<polygon fill="none" stroke="#000000" points="168,-74 168,-94 293,-94 293,-74 168,-74"/>
<polygon fill="none" stroke="#000000" points="168,-18 168,-74 293,-74 293,-18 168,-18"/>
<text text-anchor="start" x="184.523" y="-55" font-family="Helvetica,sans-Serif" font-size="10.00" fill="#000000">+dryType:stringarray</text>
<text text-anchor="start" x="178.9695" y="-43" font-family="Helvetica,sans-Serif" font-size="10.00" fill="#000000"> +dryTypeTime:intarray</text>
<text text-anchor="start" x="177.994" y="-31" font-family="Helvetica,sans-Serif" font-size="10.00" fill="#000000"> selectedDryType:string</text>
</g>
<!-- A0&#45;&gt;A2 -->
<g id="edge2" class="edge">
<title>A0&#45;&gt;A2</title>
<path fill="none" stroke="#000000" stroke-dasharray="5,2" d="M193.5818,-184.0561C200.2088,-163.6652 206.736,-143.5815 212.3935,-126.174"/>
<polygon fill="none" stroke="#000000" points="190.191,-183.1656 190.4287,-193.7578 196.8483,-185.3292 190.191,-183.1656"/>
</g>
</g>
</svg>
